name rise45.9887peak57.8056fall74.9286.mot
datacolumns 19
datarows 27
range 17.25827400000000 17.30160400000000
endheader
time	ground_force1_vx	ground_force1_vy	ground_force1_vz	ground_force1_px	ground_force1_py	ground_force1_pz	ground_force2_vx	ground_force2_vy	ground_force2_vz	ground_force2_px	ground_force2_py	ground_force2_pz	ground_torque1_x	ground_torque1_y	ground_torque1_z	ground_torque2_x	ground_torque2_y	ground_torque2_z	
17.25827400000000	56.68012800000000	774.59657600000003	62.55358700000000	0.28334500000000	0.00000000000000	0.13208500000000	0.00000000000000	0.00000000000000	0.00000000000000	0.00000000000000	0.00000000000000	0.00000000000000	0.00000000000000	19.89094100000000	0.00000000000000	0.00000000000000	0.00000000000000	0.00000000000000	
17.25993600000000	55.95259200000000	776.83263799999997	62.53486600000000	0.28249300000000	0.00000000000000	0.13201500000000	0.00000000000000	0.00000000000000	0.00000000000000	0.00000000000000	0.00000000000000	0.00000000000000	0.00000000000000	19.92117300000000	0.00000000000000	0.00000000000000	0.00000000000000	0.00000000000000	
17.26160100000000	55.22875100000000	778.93479300000001	62.51395900000000	0.28166300000000	0.00000000000000	0.13194500000000	0.00000000000000	0.00000000000000	0.00000000000000	0.00000000000000	0.00000000000000	0.00000000000000	0.00000000000000	19.95145500000000	0.00000000000000	0.00000000000000	0.00000000000000	0.00000000000000	
17.26327200000000	54.50892900000000	780.90165300000001	62.49122400000000	0.28085400000000	0.00000000000000	0.13187500000000	0.00000000000000	0.00000000000000	0.00000000000000	0.00000000000000	0.00000000000000	0.00000000000000	0.00000000000000	19.98188400000000	0.00000000000000	0.00000000000000	0.00000000000000	0.00000000000000	
17.26493300000000	53.79336700000000	782.73197400000004	62.46693600000000	0.28006400000000	0.00000000000000	0.13180500000000	0.00000000000000	0.00000000000000	0.00000000000000	0.00000000000000	0.00000000000000	0.00000000000000	0.00000000000000	20.01251600000000	0.00000000000000	0.00000000000000	0.00000000000000	0.00000000000000	
17.26660200000000	53.08222700000000	784.42467299999998	62.44128900000000	0.27929100000000	0.00000000000000	0.13173500000000	0.00000000000000	0.00000000000000	0.00000000000000	0.00000000000000	0.00000000000000	0.00000000000000	0.00000000000000	20.04337300000000	0.00000000000000	0.00000000000000	0.00000000000000	0.00000000000000	
17.26826600000000	52.37560000000000	785.97883800000000	62.41440200000000	0.27853200000000	0.00000000000000	0.13166600000000	0.00000000000000	0.00000000000000	0.00000000000000	0.00000000000000	0.00000000000000	0.00000000000000	0.00000000000000	20.07444500000000	0.00000000000000	0.00000000000000	0.00000000000000	0.00000000000000	
17.26993700000000	51.67350900000000	787.39374299999997	62.38632100000000	0.27778600000000	0.00000000000000	0.13159700000000	0.00000000000000	0.00000000000000	0.00000000000000	0.00000000000000	0.00000000000000	0.00000000000000	0.00000000000000	20.10568500000000	0.00000000000000	0.00000000000000	0.00000000000000	0.00000000000000	
17.27161900000000	50.97591200000000	788.66885400000001	62.35701900000000	0.27704900000000	0.00000000000000	0.13152800000000	0.00000000000000	0.00000000000000	0.00000000000000	0.00000000000000	0.00000000000000	0.00000000000000	0.00000000000000	20.13701900000000	0.00000000000000	0.00000000000000	0.00000000000000	0.00000000000000	
17.27329800000000	50.28271600000000	789.80384400000003	62.32640500000000	0.27632000000000	0.00000000000000	0.13146000000000	0.00000000000000	0.00000000000000	0.00000000000000	0.00000000000000	0.00000000000000	0.00000000000000	0.00000000000000	20.16834000000000	0.00000000000000	0.00000000000000	0.00000000000000	0.00000000000000	
17.27493200000000	49.59377200000000	790.79859699999997	62.29432500000000	0.27559600000000	0.00000000000000	0.13139200000000	0.00000000000000	0.00000000000000	0.00000000000000	0.00000000000000	0.00000000000000	0.00000000000000	0.00000000000000	20.19951800000000	0.00000000000000	0.00000000000000	0.00000000000000	0.00000000000000	
17.27660400000000	48.90889100000000	791.65321600000004	62.26056700000000	0.27487500000000	0.00000000000000	0.13132600000000	0.00000000000000	0.00000000000000	0.00000000000000	0.00000000000000	0.00000000000000	0.00000000000000	0.00000000000000	20.23039400000000	0.00000000000000	0.00000000000000	0.00000000000000	0.00000000000000	
17.27826900000000	48.22784200000000	792.36803599999996	62.22486700000000	0.27415400000000	0.00000000000000	0.13126000000000	0.00000000000000	0.00000000000000	0.00000000000000	0.00000000000000	0.00000000000000	0.00000000000000	0.00000000000000	20.26079100000000	0.00000000000000	0.00000000000000	0.00000000000000	0.00000000000000	
17.27993600000000	47.55036500000000	792.94362000000001	62.18691400000000	0.27343200000000	0.00000000000000	0.13119500000000	0.00000000000000	0.00000000000000	0.00000000000000	0.00000000000000	0.00000000000000	0.00000000000000	0.00000000000000	20.29050700000000	0.00000000000000	0.00000000000000	0.00000000000000	0.00000000000000	
17.28160700000000	46.87617100000000	793.38076899999999	62.14635400000000	0.27270500000000	0.00000000000000	0.13113100000000	0.00000000000000	0.00000000000000	0.00000000000000	0.00000000000000	0.00000000000000	0.00000000000000	0.00000000000000	20.31932600000000	0.00000000000000	0.00000000000000	0.00000000000000	0.00000000000000	
17.28327000000000	46.20495300000000	793.68052699999998	62.10279500000000	0.27197100000000	0.00000000000000	0.13106800000000	0.00000000000000	0.00000000000000	0.00000000000000	0.00000000000000	0.00000000000000	0.00000000000000	0.00000000000000	20.34701400000000	0.00000000000000	0.00000000000000	0.00000000000000	0.00000000000000	
17.28494000000000	45.53639000000000	793.84417599999995	62.05581400000000	0.27122900000000	0.00000000000000	0.13100600000000	0.00000000000000	0.00000000000000	0.00000000000000	0.00000000000000	0.00000000000000	0.00000000000000	0.00000000000000	20.37332700000000	0.00000000000000	0.00000000000000	0.00000000000000	0.00000000000000	
17.28659900000000	44.87015100000000	793.87324500000000	62.00496400000000	0.27047500000000	0.00000000000000	0.13094500000000	0.00000000000000	0.00000000000000	0.00000000000000	0.00000000000000	0.00000000000000	0.00000000000000	0.00000000000000	20.39800800000000	0.00000000000000	0.00000000000000	0.00000000000000	0.00000000000000	
17.28827100000000	44.20590400000000	793.76950399999998	61.94977400000000	0.26970900000000	0.00000000000000	0.13088500000000	0.00000000000000	0.00000000000000	0.00000000000000	0.00000000000000	0.00000000000000	0.00000000000000	0.00000000000000	20.42079500000000	0.00000000000000	0.00000000000000	0.00000000000000	0.00000000000000	
17.28994800000000	43.54332200000000	793.53496500000006	61.88976200000000	0.26892800000000	0.00000000000000	0.13082600000000	0.00000000000000	0.00000000000000	0.00000000000000	0.00000000000000	0.00000000000000	0.00000000000000	0.00000000000000	20.44142000000000	0.00000000000000	0.00000000000000	0.00000000000000	0.00000000000000	
17.29159800000000	42.88208400000000	793.17188099999998	61.82443400000000	0.26813000000000	0.00000000000000	0.13076800000000	0.00000000000000	0.00000000000000	0.00000000000000	0.00000000000000	0.00000000000000	0.00000000000000	0.00000000000000	20.45961300000000	0.00000000000000	0.00000000000000	0.00000000000000	0.00000000000000	
17.29326800000000	42.22188300000000	792.68273899999997	61.75329300000000	0.26731300000000	0.00000000000000	0.13071100000000	0.00000000000000	0.00000000000000	0.00000000000000	0.00000000000000	0.00000000000000	0.00000000000000	0.00000000000000	20.47510400000000	0.00000000000000	0.00000000000000	0.00000000000000	0.00000000000000	
17.29493400000000	41.56243200000000	792.07025999999996	61.67584400000000	0.26647700000000	0.00000000000000	0.13065600000000	0.00000000000000	0.00000000000000	0.00000000000000	0.00000000000000	0.00000000000000	0.00000000000000	0.00000000000000	20.48762700000000	0.00000000000000	0.00000000000000	0.00000000000000	0.00000000000000	
17.29660600000000	40.90346500000000	791.33738800000003	61.59159700000000	0.26561800000000	0.00000000000000	0.13060100000000	0.00000000000000	0.00000000000000	0.00000000000000	0.00000000000000	0.00000000000000	0.00000000000000	0.00000000000000	20.49692000000000	0.00000000000000	0.00000000000000	0.00000000000000	0.00000000000000	
17.29827100000000	40.24474400000000	790.48729000000003	61.50007500000000	0.26473700000000	0.00000000000000	0.13054800000000	0.00000000000000	0.00000000000000	0.00000000000000	0.00000000000000	0.00000000000000	0.00000000000000	0.00000000000000	20.50273100000000	0.00000000000000	0.00000000000000	0.00000000000000	0.00000000000000	
17.29993600000000	39.58606100000000	789.52334399999995	61.40081600000000	0.26383200000000	0.00000000000000	0.13049600000000	0.00000000000000	0.00000000000000	0.00000000000000	0.00000000000000	0.00000000000000	0.00000000000000	0.00000000000000	20.50481500000000	0.00000000000000	0.00000000000000	0.00000000000000	0.00000000000000	
17.30160400000000	38.92724300000000	788.44913199999996	61.29338100000000	0.26290200000000	0.00000000000000	0.13044400000000	0.00000000000000	0.00000000000000	0.00000000000000	0.00000000000000	0.00000000000000	0.00000000000000	0.00000000000000	20.50294400000000	0.00000000000000	0.00000000000000	0.00000000000000	0.00000000000000	
